<mxfile host="app.diagrams.net" modified="2023-06-28T07:04:38.128Z" agent="Mozilla/5.0 (Macintosh; Intel Mac OS X 10_15_7) AppleWebKit/537.36 (KHTML, like Gecko) Chrome/114.0.0.0 Safari/537.36" version="21.5.1" etag="5eWz1-rjJFznrnUoK-pH" type="github">
  <diagram name="第 1 页" id="HjsYMUvovBwncJhW_nu2">
    <mxGraphModel>
      <root>
        <mxCell id="0" />
        <mxCell id="1" parent="0" />
      </root>
    </mxGraphModel>
  </diagram>
</mxfile>
